<svg width="64" height="64" viewBox="0 0 64 64" xmlns="http://www.w3.org/2000/svg">
  <defs>
    <linearGradient id="faviconGradient" x1="0%" y1="0%" x2="100%" y2="100%">
      <stop offset="0%" style="stop-color:#8b5cf6;stop-opacity:1" />
      <stop offset="100%" style="stop-color:#ff6b6b;stop-opacity:1" />
    </linearGradient>
  </defs>
  
  <!-- Fondo circular con gradiente -->
  <circle cx="32" cy="32" r="30" fill="url(#faviconGradient)"/>
  
  <!-- Letra C simplificada -->
  <path d="M 16 32 Q 16 20 22 16 Q 28 14 32 18 Q 34 20 34 22" 
        fill="none" 
        stroke="#ffffff" 
        stroke-width="4" 
        stroke-linecap="round" 
        stroke-linejoin="round"/>
  <path d="M 16 32 Q 16 44 22 48 Q 28 50 32 46 Q 34 44 34 42" 
        fill="none" 
        stroke="#ffffff" 
        stroke-width="4" 
        stroke-linecap="round" 
        stroke-linejoin="round"/>
  
  <!-- Letra R simplificada -->
  <path d="M 38 16 L 38 48" 
        fill="none" 
        stroke="#ffffff" 
        stroke-width="4" 
        stroke-linecap="round"/>
  <path d="M 38 16 Q 38 16 46 16 Q 50 16 50 20 Q 50 24 48 26" 
        fill="none" 
        stroke="#ffffff" 
        stroke-width="4" 
        stroke-linecap="round" 
        stroke-linejoin="round"/>
  <path d="M 38 32 L 50 32 Q 52 32 52 34 Q 52 36 50 38 L 38 38" 
        fill="none" 
        stroke="#ffffff" 
        stroke-width="4" 
        stroke-linecap="round" 
        stroke-linejoin="round"/>
  <path d="M 48 32 L 52 48" 
        fill="none" 
        stroke="#ffffff" 
        stroke-width="4" 
        stroke-linecap="round"/>
</svg>

