<svg width="64" height="64" viewBox="0 0 64 64" xmlns="http://www.w3.org/2000/svg">
  <defs>
    <linearGradient id="faviconGradient" x1="0%" y1="0%" x2="100%" y2="100%">
      <stop offset="0%" style="stop-color:#8b5cf6;stop-opacity:1" />
      <stop offset="100%" style="stop-color:#ff6b6b;stop-opacity:1" />
    </linearGradient>
  </defs>
  
  <!-- Fondo circular con gradiente -->
  <circle cx="32" cy="32" r="30" fill="url(#faviconGradient)"/>
  
  <!-- Letra C -->
  <path d="M 20 32 
           A 12 12 0 0 1 32 20
           L 32 18
           A 14 14 0 0 0 18 32
           Z" 
        fill="#ffffff" 
        opacity="0.95"/>
  <path d="M 20 32 
           A 12 12 0 0 0 32 44
           L 32 46
           A 14 14 0 0 1 18 32
           Z" 
        fill="#ffffff" 
        opacity="0.95"/>
  
  <!-- Letra R -->
  <rect x="38" y="18" width="4" height="28" rx="2" fill="#ffffff" opacity="0.95"/>
  <rect x="38" y="18" width="12" height="4" rx="2" fill="#ffffff" opacity="0.95"/>
  <rect x="48" y="22" width="3" height="4" rx="1.5" fill="#ffffff" opacity="0.95"/>
  <rect x="38" y="32" width="8" height="4" rx="2" fill="#ffffff" opacity="0.95"/>
  <rect x="44" y="36" width="4" height="10" rx="2" fill="#ffffff" opacity="0.95"/>
</svg>
