<svg width="64" height="64" viewBox="0 0 64 64" xmlns="http://www.w3.org/2000/svg">
  <defs>
    <linearGradient id="faviconGradient" x1="0%" y1="0%" x2="100%" y2="100%">
      <stop offset="0%" style="stop-color:#8b5cf6;stop-opacity:1" />
      <stop offset="100%" style="stop-color:#ff6b6b;stop-opacity:1" />
    </linearGradient>
  </defs>
  
  <!-- Fondo circular con gradiente -->
  <circle cx="32" cy="32" r="28" fill="url(#faviconGradient)"/>
  
  <!-- Letra C -->
  <path d="M 18 32 
           C 18 22, 22 16, 28 16
           C 34 16, 38 22, 38 26" 
        fill="none" 
        stroke="#ffffff" 
        stroke-width="4" 
        stroke-linecap="round" 
        stroke-linejoin="round"/>
  <path d="M 18 32 
           C 18 42, 22 48, 28 48
           C 34 48, 38 42, 38 38" 
        fill="none" 
        stroke="#ffffff" 
        stroke-width="4" 
        stroke-linecap="round" 
        stroke-linejoin="round"/>
  
  <!-- Letra R -->
  <line x1="42" y1="18" x2="42" y2="46" 
        stroke="#ffffff" 
        stroke-width="4" 
        stroke-linecap="round"/>
  <path d="M 42 18 
           Q 42 18, 48 18
           Q 52 18, 52 22
           Q 52 26, 50 28" 
        fill="none" 
        stroke="#ffffff" 
        stroke-width="4" 
        stroke-linecap="round" 
        stroke-linejoin="round"/>
  <line x1="42" y1="32" x2="52" y2="32" 
        stroke="#ffffff" 
        stroke-width="4" 
        stroke-linecap="round"/>
  <line x1="50" y1="32" x2="54" y2="46" 
        stroke="#ffffff" 
        stroke-width="4" 
        stroke-linecap="round"/>
</svg>
