<svg width="64" height="64" viewBox="0 0 64 64" xmlns="http://www.w3.org/2000/svg">
  <defs>
    <linearGradient id="faviconGradient" x1="0%" y1="0%" x2="100%" y2="100%">
      <stop offset="0%" style="stop-color:#8b5cf6;stop-opacity:1" />
      <stop offset="100%" style="stop-color:#ff6b6b;stop-opacity:1" />
    </linearGradient>
  </defs>
  
  <!-- Fondo circular con gradiente -->
  <circle cx="32" cy="32" r="30" fill="url(#faviconGradient)"/>
  
  <!-- Letra C -->
  <path d="M 20 32 
           C 20 24, 24 20, 32 20
           C 40 20, 44 24, 44 28" 
        fill="none" 
        stroke="#ffffff" 
        stroke-width="5" 
        stroke-linecap="round" 
        stroke-linejoin="round"/>
  <path d="M 20 32 
           C 20 40, 24 44, 32 44
           C 40 44, 44 40, 44 36" 
        fill="none" 
        stroke="#ffffff" 
        stroke-width="5" 
        stroke-linecap="round" 
        stroke-linejoin="round"/>
  
  <!-- Letra R -->
  <line x1="48" y1="20" x2="48" y2="44" 
        stroke="#ffffff" 
        stroke-width="5" 
        stroke-linecap="round"/>
  <path d="M 48 20 
           C 48 20, 52 20, 54 22
           C 55 23, 55 24, 54 25" 
        fill="none" 
        stroke="#ffffff" 
        stroke-width="5" 
        stroke-linecap="round" 
        stroke-linejoin="round"/>
  <line x1="48" y1="32" x2="54" y2="32" 
        stroke="#ffffff" 
        stroke-width="5" 
        stroke-linecap="round"/>
  <path d="M 52 32 
           C 53 34, 54 36, 54 38
           L 54 44" 
        fill="none" 
        stroke="#ffffff" 
        stroke-width="5" 
        stroke-linecap="round" 
        stroke-linejoin="round"/>
</svg>
