<svg width="200" height="200" viewBox="0 0 200 200" xmlns="http://www.w3.org/2000/svg">
  <defs>
    <linearGradient id="gradientMain" x1="0%" y1="0%" x2="100%" y2="100%">
      <stop offset="0%" style="stop-color:#8b5cf6;stop-opacity:1" />
      <stop offset="100%" style="stop-color:#ff6b6b;stop-opacity:1" />
    </linearGradient>
  </defs>
  
  <!-- Fondo circular con gradiente -->
  <circle cx="100" cy="100" r="95" fill="url(#gradientMain)"/>
  
  <!-- Letra C elegante -->
  <path d="M 65 100 
           C 65 75, 80 60, 100 60
           C 120 60, 135 75, 135 90" 
        fill="none" 
        stroke="#ffffff" 
        stroke-width="16" 
        stroke-linecap="round" 
        stroke-linejoin="round"/>
  <path d="M 65 100 
           C 65 125, 80 140, 100 140
           C 120 140, 135 125, 135 110" 
        fill="none" 
        stroke="#ffffff" 
        stroke-width="16" 
        stroke-linecap="round" 
        stroke-linejoin="round"/>
  
  <!-- Letra R elegante -->
  <line x1="150" y1="60" x2="150" y2="140" 
        stroke="#ffffff" 
        stroke-width="16" 
        stroke-linecap="round"/>
  <path d="M 150 60 
           C 150 60, 165 60, 175 70
           C 180 75, 180 80, 175 85" 
        fill="none" 
        stroke="#ffffff" 
        stroke-width="16" 
        stroke-linecap="round" 
        stroke-linejoin="round"/>
  <line x1="150" y1="100" x2="180" y2="100" 
        stroke="#ffffff" 
        stroke-width="16" 
        stroke-linecap="round"/>
  <path d="M 170 100 
           C 172 105, 175 110, 180 115
           L 180 140" 
        fill="none" 
        stroke="#ffffff" 
        stroke-width="16" 
        stroke-linecap="round" 
        stroke-linejoin="round"/>
</svg>
