<svg width="200" height="200" viewBox="0 0 200 200" xmlns="http://www.w3.org/2000/svg">
  <defs>
    <linearGradient id="gradientMain" x1="0%" y1="0%" x2="100%" y2="100%">
      <stop offset="0%" style="stop-color:#8b5cf6;stop-opacity:1" />
      <stop offset="100%" style="stop-color:#ff6b6b;stop-opacity:1" />
    </linearGradient>
  </defs>
  
  <!-- Fondo circular con gradiente -->
  <circle cx="100" cy="100" r="90" fill="url(#gradientMain)"/>
  
  <!-- Letra C estilizada -->
  <path d="M 60 100 
           C 60 70, 75 50, 100 50
           C 125 50, 140 70, 140 85" 
        fill="none" 
        stroke="#ffffff" 
        stroke-width="14" 
        stroke-linecap="round" 
        stroke-linejoin="round"/>
  <path d="M 60 100 
           C 60 130, 75 150, 100 150
           C 125 150, 140 130, 140 115" 
        fill="none" 
        stroke="#ffffff" 
        stroke-width="14" 
        stroke-linecap="round" 
        stroke-linejoin="round"/>
  
  <!-- Letra R estilizada -->
  <line x1="155" y1="55" x2="155" y2="145" 
        stroke="#ffffff" 
        stroke-width="14" 
        stroke-linecap="round"/>
  <path d="M 155 55 
           Q 155 55, 170 55
           Q 185 55, 185 75
           Q 185 90, 175 95" 
        fill="none" 
        stroke="#ffffff" 
        stroke-width="14" 
        stroke-linecap="round" 
        stroke-linejoin="round"/>
  <line x1="155" y1="100" x2="185" y2="100" 
        stroke="#ffffff" 
        stroke-width="14" 
        stroke-linecap="round"/>
  <line x1="175" y1="100" x2="190" y2="145" 
        stroke="#ffffff" 
        stroke-width="14" 
        stroke-linecap="round"/>
</svg>
