<svg width="200" height="200" viewBox="0 0 200 200" xmlns="http://www.w3.org/2000/svg">
  <defs>
    <linearGradient id="gradientMain" x1="0%" y1="0%" x2="100%" y2="100%">
      <stop offset="0%" style="stop-color:#8b5cf6;stop-opacity:1" />
      <stop offset="100%" style="stop-color:#ff6b6b;stop-opacity:1" />
    </linearGradient>
  </defs>
  
  <!-- Fondo circular con gradiente -->
  <circle cx="100" cy="100" r="95" fill="url(#gradientMain)"/>
  
  <!-- Letra C - diseño moderno y limpio -->
  <path d="M 70 100 
           A 30 30 0 0 1 100 70
           L 100 60
           A 40 40 0 0 0 60 100
           Z" 
        fill="#ffffff" 
        opacity="0.95"/>
  <path d="M 70 100 
           A 30 30 0 0 0 100 130
           L 100 140
           A 40 40 0 0 1 60 100
           Z" 
        fill="#ffffff" 
        opacity="0.95"/>
  
  <!-- Letra R - diseño moderno -->
  <rect x="125" y="60" width="12" height="80" rx="6" fill="#ffffff" opacity="0.95"/>
  <rect x="125" y="60" width="35" height="12" rx="6" fill="#ffffff" opacity="0.95"/>
  <rect x="150" y="72" width="10" height="12" rx="5" fill="#ffffff" opacity="0.95"/>
  <rect x="125" y="100" width="25" height="12" rx="6" fill="#ffffff" opacity="0.95"/>
  <rect x="145" y="112" width="12" height="28" rx="6" fill="#ffffff" opacity="0.95"/>
</svg>
