<svg width="350" height="100" viewBox="0 0 350 100" xmlns="http://www.w3.org/2000/svg">
  <defs>
    <linearGradient id="logoGradient" x1="0%" y1="0%" x2="100%" y2="0%">
      <stop offset="0%" style="stop-color:#8b5cf6;stop-opacity:1" />
      <stop offset="100%" style="stop-color:#ff6b6b;stop-opacity:1" />
    </linearGradient>
  </defs>
  
  <!-- Círculo con logo -->
  <circle cx="50" cy="50" r="40" fill="url(#logoGradient)"/>
  
  <!-- Letra C -->
  <path d="M 30 50 
           C 30 35, 38 25, 48 25
           C 58 25, 66 35, 66 42" 
        fill="none" 
        stroke="#ffffff" 
        stroke-width="6" 
        stroke-linecap="round" 
        stroke-linejoin="round"/>
  <path d="M 30 50 
           C 30 65, 38 75, 48 75
           C 58 75, 66 65, 66 58" 
        fill="none" 
        stroke="#ffffff" 
        stroke-width="6" 
        stroke-linecap="round" 
        stroke-linejoin="round"/>
  
  <!-- Letra R -->
  <line x1="72" y1="30" x2="72" y2="70" 
        stroke="#ffffff" 
        stroke-width="6" 
        stroke-linecap="round"/>
  <path d="M 72 30 
           Q 72 30, 80 30
           Q 86 30, 86 38
           Q 86 44, 82 46" 
        fill="none" 
        stroke="#ffffff" 
        stroke-width="6" 
        stroke-linecap="round" 
        stroke-linejoin="round"/>
  <line x1="72" y1="50" x2="86" y2="50" 
        stroke="#ffffff" 
        stroke-width="6" 
        stroke-linecap="round"/>
  <line x1="82" y1="50" x2="88" y2="70" 
        stroke="#ffffff" 
        stroke-width="6" 
        stroke-linecap="round"/>
  
  <!-- Texto "Charisma Revolución" -->
  <text x="110" y="38" font-family="Lora, serif" font-size="28" font-weight="700" fill="url(#logoGradient)">
    Charisma
  </text>
  <text x="110" y="68" font-family="Lora, serif" font-size="20" font-weight="400" fill="#00100b">
    Revolución
  </text>
</svg>
