<svg width="300" height="80" viewBox="0 0 300 80" xmlns="http://www.w3.org/2000/svg">
  <defs>
    <linearGradient id="logoGradient" x1="0%" y1="0%" x2="100%" y2="0%">
      <stop offset="0%" style="stop-color:#8b5cf6;stop-opacity:1" />
      <stop offset="100%" style="stop-color:#ff6b6b;stop-opacity:1" />
    </linearGradient>
  </defs>
  
  <!-- Círculo con logo -->
  <circle cx="40" cy="40" r="35" fill="url(#logoGradient)"/>
  
  <!-- Letra C en el círculo -->
  <path d="M 25 40 Q 25 28 30 24 Q 35 22 38 26 Q 40 28 40 30" 
        fill="none" 
        stroke="#ffffff" 
        stroke-width="5" 
        stroke-linecap="round" 
        stroke-linejoin="round"/>
  <path d="M 25 40 Q 25 52 30 56 Q 35 58 38 54 Q 40 52 40 50" 
        fill="none" 
        stroke="#ffffff" 
        stroke-width="5" 
        stroke-linecap="round" 
        stroke-linejoin="round"/>
  
  <!-- Letra R en el círculo -->
  <path d="M 50 24 L 50 56" 
        fill="none" 
        stroke="#ffffff" 
        stroke-width="5" 
        stroke-linecap="round"/>
  <path d="M 50 24 Q 50 24 56 24 Q 60 24 60 28 Q 60 32 58 34" 
        fill="none" 
        stroke="#ffffff" 
        stroke-width="5" 
        stroke-linecap="round" 
        stroke-linejoin="round"/>
  <path d="M 50 40 L 60 40 Q 62 40 62 42 Q 62 44 60 46 L 50 46" 
        fill="none" 
        stroke="#ffffff" 
        stroke-width="5" 
        stroke-linecap="round" 
        stroke-linejoin="round"/>
  <path d="M 58 40 L 62 56" 
        fill="none" 
        stroke="#ffffff" 
        stroke-width="5" 
        stroke-linecap="round"/>
  
  <!-- Texto "Charisma Revolución" -->
  <text x="90" y="30" font-family="Lora, serif" font-size="24" font-weight="700" fill="url(#logoGradient)">
    Charisma
  </text>
  <text x="90" y="55" font-family="Lora, serif" font-size="18" font-weight="400" fill="#00100b">
    Revolución
  </text>
</svg>

